<style>
svg.icon {
display: inline-block;
vertical-align: middle;
width: 20px;
height: 20px;
padding-right: 4px;
fill: #333;
}
.theme-inverse svg.icon {
fill: #fff;
}
</style>

<svg style="display:none" version="1.1" xmlns="http://www.w3.org/2000/svg" xmlns:xlink="http://www.w3.org/1999/xlink" width="0" height="0" viewBox="0 0 0 0">
<defs>
<symbol id="icon-arrow3" viewBox="0 0 20 20">
<path d="M14.88 20c2.221-4.024 2.595-10.162-6.13-9.958v4.958l-7.5-7.5 7.5-7.5v4.851c10.448-0.272 11.613 9.223 6.13 15.149z"></path>
</symbol>
<symbol id="icon-arrow2" viewBox="0 0 20 20">
<path d="M11.25 4.851v-4.851l7.5 7.5-7.5 7.5v-4.958c-8.726-0.205-8.351 5.933-6.13 9.958-5.483-5.926-4.318-15.421 6.13-15.149z"></path>
</symbol>
<symbol id="icon-twitter2" viewBox="0 0 20 20">
<path d="M20 3.797c-0.736 0.326-1.527 0.547-2.357 0.646 0.847-0.508 1.498-1.312 1.804-2.27-0.793 0.47-1.671 0.812-2.606 0.996-0.748-0.797-1.815-1.296-2.995-1.296-2.266 0-4.103 1.837-4.103 4.103 0 0.322 0.036 0.635 0.106 0.935-3.41-0.171-6.434-1.805-8.457-4.287-0.353 0.606-0.556 1.311-0.556 2.063 0 1.424 0.724 2.68 1.825 3.415-0.673-0.021-1.305-0.206-1.858-0.513-0 0.017-0 0.034-0 0.052 0 1.988 1.414 3.646 3.291 4.023-0.344 0.094-0.707 0.144-1.081 0.144-0.264 0-0.521-0.026-0.772-0.074 0.522 1.63 2.038 2.817 3.833 2.85-1.404 1.101-3.174 1.757-5.096 1.757-0.331 0-0.658-0.019-0.979-0.057 1.816 1.164 3.973 1.844 6.29 1.844 7.547 0 11.675-6.252 11.675-11.675 0-0.178-0.004-0.355-0.012-0.531 0.802-0.579 1.497-1.301 2.048-2.124z"></path>
</symbol>
<symbol id="icon-list2" viewBox="0 0 20 20">
<path d="M1.25 3.75h17.5v3.75h-17.5zM1.25 8.75h17.5v3.75h-17.5zM1.25 13.75h17.5v3.75h-17.5z"></path>
</symbol>
<symbol id="icon-mute" viewBox="0 0 20 20">
<path d="M7.839 1.536c0.501-0.501 0.911-0.331 0.911 0.378v16.172c0 0.709-0.41 0.879-0.911 0.378l-4.714-4.713h-3.125v-7.5h3.125l4.714-4.714zM18.75 12.093v1.657h-1.657l-2.093-2.093-2.093 2.093h-1.657v-1.657l2.093-2.093-2.093-2.093v-1.657h1.657l2.093 2.093 2.093-2.093h1.657v1.657l-2.093 2.093z"></path>
</symbol>
 <svg id="icon-user" viewBox="0 0 20 20">
<path d="M12.165 13.725c-0.432-0.069-0.442-1.256-0.442-1.256s1.269-1.256 1.545-2.945c0.744 0 1.203-1.796 0.459-2.428 0.031-0.665 0.956-5.221-3.728-5.221s-3.759 4.556-3.728 5.221c-0.744 0.632-0.285 2.428 0.459 2.428 0.277 1.689 1.545 2.945 1.545 2.945s-0.010 1.187-0.442 1.256c-1.391 0.221-6.585 2.512-6.585 5.025h17.5c0-2.512-5.194-4.803-6.585-5.025z"></path>
</svg>
<svg id="icon-users" viewBox="0 0 20 20">
<path d="M14.355 15.73c-0.37-0.058-0.379-1.067-0.379-1.067s1.088-1.067 1.325-2.503c0.638 0 1.032-1.526 0.394-2.063 0.027-0.565 0.82-4.437-3.195-4.437s-3.222 3.872-3.195 4.437c-0.638 0.537-0.244 2.063 0.394 2.063 0.237 1.435 1.325 2.503 1.325 2.503s-0.008 1.009-0.379 1.067c-1.192 0.188-5.645 2.135-5.645 4.27h15c0-2.135-4.452-4.082-5.645-4.27zM6.72 16.071c0.861-0.53 1.907-1.022 2.764-1.317-0.308-0.438-0.65-1.034-0.866-1.739-0.301-0.245-0.546-0.596-0.703-1.027s-0.217-0.915-0.168-1.361c0.035-0.32 0.127-0.618 0.267-0.881-0.085-0.91-0.145-2.696 1.024-3.999 0.453-0.505 1.026-0.868 1.713-1.088-0.123-1.265-0.765-2.749-3.251-2.749-4.015 0-3.222 3.872-3.195 4.437-0.638 0.537-0.244 2.063 0.394 2.063 0.237 1.435 1.325 2.503 1.325 2.503s-0.008 1.009-0.379 1.067c-1.192 0.188-5.645 2.135-5.645 4.27h6.437c0.092-0.060 0.186-0.12 0.282-0.179z"></path>
</svg>
<svg id="icon-arrow1" viewBox="0 0 20 20">
<path d="M8.75 15.149v4.851l-7.5-7.5 7.5-7.5v4.957c8.726 0.205 8.351-5.933 6.13-9.957 5.483 5.926 4.318 15.421-6.13 15.149z"></path>
</svg>
<svg id="icon-blocked" viewBox="0 0 20 20">
<path d="M10 0c-5.522 0-10 4.478-10 10s4.478 10 10 10 10-4.478 10-10-4.478-10-10-10zM10 2.5c1.619 0 3.108 0.528 4.334 1.401l-10.435 10.43c-0.874-1.226-1.399-2.715-1.399-4.331 0-4.136 3.364-7.5 7.5-7.5zM10 17.5c-1.619 0-3.108-0.527-4.334-1.401l10.435-10.43c0.874 1.226 1.399 2.715 1.399 4.331 0 4.136-3.364 7.5-7.5 7.5z"></path>
</svg>
<svg id="icon-at" viewBox="0 0 20 20">
<path d="M18.652 15c0.857-1.472 1.348-3.174 1.348-5 0-5.522-4.478-10-10-10s-10 4.478-10 10 4.478 10 10 10c2.761 0 5.261-1.118 7.070-2.93l-1.77-1.77c-1.357 1.36-3.232 2.2-5.3 2.2-4.136 0-7.5-3.364-7.5-7.5s3.364-7.5 7.5-7.5 7.5 3.364 7.5 7.5c0 0.889-0.171 1.738-0.456 2.529l-0.020-0.029h-2.024v-7.473h-5c-2.761 0-5 2.239-5 5s2.239 5 5 5c1.147 0 2.192-0.403 3.037-1.053 0.454 0.606 1.147 1.026 1.963 1.026h3.652zM12.5 8.755v1.272c0 1.379-1.123 2.5-2.5 2.5s-2.5-1.121-2.5-2.5 1.123-2.5 2.5-2.5h2.5v1.228z"></path>
</svg>
<svg id="icon-bubbles" width="23" height="20" viewBox="0 0 23 20">
<path d="M21.25 17.601c0 0.889 0.508 1.658 1.25 2.035v0.311c-0.208 0.028-0.419 0.043-0.635 0.043-1.328 0-2.526-0.557-3.373-1.45-0.512 0.136-1.055 0.21-1.617 0.21-3.107 0-5.625-2.239-5.625-5s2.518-5 5.625-5c3.107 0 5.625 2.239 5.625 5 0 1.081-0.386 2.082-1.042 2.9-0.133 0.29-0.208 0.612-0.208 0.951zM10 0c5.439 0 9.863 3.528 9.997 7.92-0.961-0.428-2.023-0.655-3.122-0.655-1.866 0-3.629 0.653-4.964 1.839-1.384 1.23-2.146 2.88-2.146 4.645 0 0.873 0.186 1.717 0.542 2.496-0.102 0.002-0.204 0.004-0.307 0.004-0.53 0-1.051-0.034-1.559-0.099-2.148 2.148-4.712 2.533-7.191 2.59v-0.526c1.339-0.656 2.5-1.85 2.5-3.216 0-0.191-0.015-0.378-0.042-0.56-2.262-1.49-3.708-3.765-3.708-6.315 0-4.487 4.477-8.125 10-8.125z"></path>
</svg>
<svg id="icon-home" viewBox="0 0 20 20">
<path d="M20 11.875l-3.75-3.75v-5.625h-2.5v3.125l-3.75-3.75-10 10v0.625h2.5v6.25h6.25v-3.75h2.5v3.75h6.25v-6.25h2.5z"></path>
</svg>
<svg id="icon-link" viewBox="0 0 20 20">
<path d="M18.621 1.458l-0.079-0.079c-1.839-1.839-4.848-1.839-6.686 0l-4.26 4.26c-1.839 1.839-1.839 4.847 0 6.686l0.079 0.079c0.153 0.153 0.315 0.291 0.483 0.419l1.56-1.56c-0.182-0.107-0.354-0.236-0.51-0.392l-0.079-0.079c-0.998-0.998-0.998-2.623 0-3.621l4.26-4.26c0.998-0.998 2.623-0.998 3.621 0l0.079 0.079c0.998 0.998 0.998 2.623 0 3.621l-1.927 1.927c0.335 0.826 0.493 1.707 0.479 2.586l2.981-2.981c1.839-1.839 1.839-4.847-0-6.686zM12.325 7.596c-0.153-0.153-0.315-0.291-0.483-0.419l-1.56 1.559c0.182 0.107 0.354 0.236 0.51 0.392l0.079 0.079c0.998 0.998 0.998 2.622 0 3.621l-4.26 4.26c-0.998 0.998-2.623 0.998-3.621 0l-0.079-0.079c-0.998-0.998-0.998-2.623 0-3.621l1.928-1.927c-0.335-0.826-0.493-1.707-0.479-2.586l-2.981 2.98c-1.839 1.839-1.839 4.847 0 6.686l0.079 0.079c1.839 1.838 4.848 1.838 6.686 0l4.26-4.26c1.839-1.839 1.839-4.848 0-6.686l-0.079-0.079z"></path>
</svg>
<svg id="icon-image" viewBox="0 0 20 20">
<path d="M17.5 3.75h-15v12.5h15v-12.5zM20 1.25v0 17.5h-20v-17.5h20zM16.25 15h-12.5v-2.5l3.75-6.25 5.137 6.25 3.613-2.5v1.25zM12.5 6.875c0 1.036 0.839 1.875 1.875 1.875s1.875-0.839 1.875-1.875c0-1.036-0.839-1.875-1.875-1.875s-1.875 0.839-1.875 1.875z"></path>
</svg>
<svg id="icon-alert" viewBox="0 0 20 20">
<path d="M19.735 16.382l-7.499-15c-0.423-0.847-1.288-1.382-2.236-1.382s-1.813 0.535-2.236 1.382l-7.499 15c-0.388 0.775-0.346 1.696 0.109 2.433 0.456 0.736 1.26 1.185 2.126 1.185h14.998c0.867 0 1.671-0.449 2.126-1.185 0.456-0.737 0.497-1.658 0.11-2.433zM11.249 16.875c0 0.346-0.279 0.625-0.625 0.625h-1.25c-0.346 0-0.625-0.279-0.625-0.625v-1.25c0-0.346 0.279-0.625 0.625-0.625h1.25c0.346 0 0.625 0.279 0.625 0.625v1.25zM11.249 11.875c0 0.346-0.279 0.625-0.625 0.625h-1.25c-0.346 0-0.625-0.279-0.625-0.625v-6.25c0-0.345 0.279-0.625 0.625-0.625h1.25c0.346 0 0.625 0.28 0.625 0.625v6.25z"></path>
</svg>
<svg id="icon-mail" viewBox="0 0 20 20">
<path d="M18.125 2.5h-16.25c-1.031 0-1.875 0.844-1.875 1.875v12.5c0 1.031 0.844 1.875 1.875 1.875h16.25c1.031 0 1.875-0.844 1.875-1.875v-12.5c0-1.031-0.844-1.875-1.875-1.875zM7.788 10.749l-5.288 4.119v-9.798l5.288 5.679zM3.445 5h13.11l-6.555 4.922-6.555-4.922zM7.994 10.971l2.006 2.154 2.006-2.154 4.112 5.279h-12.237l4.112-5.279zM12.212 10.749l5.288-5.679v9.798l-5.288-4.119z"></path>
</svg>
<svg id="icon-quote" viewBox="0 0 20 20">
<path d="M4.395 8.75c2.416 0 4.375 1.959 4.375 4.375s-1.959 4.375-4.375 4.375-4.375-1.959-4.375-4.375l-0.020-0.625c0-4.832 3.917-8.75 8.75-8.75v2.5c-1.669 0-3.239 0.65-4.419 1.831-0.227 0.227-0.435 0.469-0.622 0.723 0.223-0.035 0.452-0.054 0.686-0.054zM15.645 8.75c2.416 0 4.375 1.959 4.375 4.375s-1.959 4.375-4.375 4.375-4.375-1.959-4.375-4.375l-0.020-0.625c0-4.832 3.918-8.75 8.75-8.75v2.5c-1.669 0-3.239 0.65-4.419 1.831-0.227 0.227-0.435 0.469-0.622 0.723 0.223-0.035 0.452-0.054 0.686-0.054z"></path>
</svg>
<svg id="icon-checkmark" viewBox="0 0 20 20">
<path d="M16.875 2.5l-9.375 9.375-4.375-4.375-3.125 3.125 7.5 7.5 12.5-12.5z"></path>
</svg>
<svg id="icon-close" viewBox="0 0 20 20" x="108" y="36">
<path d="M19.818 16.068c-0-0-0-0-0-0l-6.067-6.067 6.067-6.067c0-0 0-0 0-0 0.065-0.065 0.113-0.142 0.143-0.223 0.083-0.222 0.036-0.482-0.143-0.661l-2.866-2.866c-0.179-0.179-0.438-0.226-0.661-0.143-0.081 0.030-0.158 0.077-0.223 0.143 0 0-0 0-0 0l-6.067 6.067-6.067-6.067c-0-0-0-0-0-0-0.065-0.065-0.142-0.113-0.223-0.143-0.222-0.083-0.482-0.036-0.661 0.143l-2.866 2.866c-0.179 0.179-0.226 0.439-0.143 0.661 0.030 0.081 0.078 0.158 0.143 0.223 0 0 0 0 0 0l6.067 6.067-6.067 6.067c-0 0-0 0-0 0-0.065 0.065-0.113 0.142-0.143 0.223-0.083 0.222-0.036 0.482 0.143 0.661l2.866 2.866c0.179 0.179 0.439 0.226 0.661 0.143 0.081-0.030 0.158-0.078 0.223-0.143 0-0 0-0 0-0l6.067-6.067 6.067 6.067c0 0 0 0 0 0 0.065 0.065 0.142 0.113 0.223 0.143 0.222 0.083 0.482 0.036 0.661-0.143l2.866-2.866c0.179-0.179 0.226-0.439 0.143-0.661-0.030-0.081-0.078-0.158-0.143-0.223z"></path>
</svg>
<svg id="icon-twitter" viewBox="0 0 20 20">
<path d="M10 0c-5.523 0-10 4.477-10 10s4.477 10 10 10 10-4.477 10-10-4.477-10-10-10zM15.747 7.053c0.006 0.127 0.009 0.255 0.009 0.384 0 3.918-2.983 8.437-8.437 8.437-1.675 0-3.233-0.491-4.545-1.332 0.232 0.027 0.468 0.042 0.707 0.042 1.389 0 2.668-0.474 3.683-1.269-1.298-0.024-2.393-0.881-2.77-2.059 0.181 0.035 0.367 0.053 0.558 0.053 0.27 0 0.532-0.036 0.781-0.104-1.356-0.272-2.379-1.471-2.379-2.908 0-0.012 0-0.025 0-0.037 0.4 0.222 0.857 0.355 1.343 0.371-0.796-0.532-1.319-1.439-1.319-2.468 0-0.543 0.146-1.053 0.401-1.491 1.462 1.794 3.647 2.974 6.112 3.098-0.051-0.217-0.077-0.443-0.077-0.676 0-1.637 1.328-2.965 2.965-2.965 0.853 0 1.624 0.36 2.164 0.936 0.675-0.133 1.31-0.38 1.883-0.72-0.221 0.692-0.692 1.274-1.304 1.641 0.6-0.072 1.171-0.231 1.703-0.467-0.397 0.595-0.9 1.117-1.48 1.535z"></path>
</svg>
<svg id="icon-reload2" viewBox="0 0 20 20">
<path d="M20 7.5h-7.5l2.803-2.803c-1.417-1.417-3.3-2.197-5.303-2.197s-3.887 0.78-5.303 2.197c-1.417 1.417-2.197 3.3-2.197 5.303s0.78 3.887 2.197 5.303c1.417 1.417 3.3 2.197 5.303 2.197s3.887-0.78 5.303-2.197c0.118-0.118 0.232-0.24 0.341-0.365l1.881 1.646c-1.833 2.093-4.525 3.415-7.525 3.415-5.523 0-10-4.477-10-10s4.477-10 10-10c2.761 0 5.261 1.12 7.071 2.929l2.929-2.929v7.5z"></path>
</svg>
<svg id="icon-star2" viewBox="0 0 20 20">
<path d="M20 7.755l-6.91-1.004-3.090-6.261-3.090 6.261-6.91 1.004 5 4.874-1.18 6.882 6.18-3.249 6.18 3.249-1.18-6.882 5-4.874z"></path>
</svg>
<svg id="icon-star" viewBox="0 0 20 20">
<path d="M20 7.755l-6.91-1.004-3.090-6.261-3.090 6.261-6.91 1.004 5 4.874-1.18 6.882 6.18-3.249 6.18 3.249-1.18-6.882 5-4.874zM10 14.717l-4.364 2.295 0.834-4.86-3.531-3.442 4.88-0.709 2.182-4.422 2.182 4.422 4.88 0.709-3.531 3.442 0.834 4.86-4.364-2.295z"></path>
</svg>
<svg id="icon-gear" viewBox="0 0 20 20">
<path d="M20 11.877v-3.754l-2.867-0.478c-0.116-0.354-0.258-0.697-0.424-1.025l1.689-2.364-2.654-2.654-2.36 1.686c-0.33-0.167-0.675-0.31-1.031-0.428l-0.477-2.86h-3.754l-0.477 2.86c-0.356 0.117-0.7 0.261-1.031 0.428l-2.36-1.686-2.654 2.654 1.689 2.364c-0.165 0.329-0.307 0.671-0.424 1.025l-2.867 0.478v3.754l2.873 0.479c0.116 0.351 0.258 0.69 0.423 1.016l-1.694 2.372 2.654 2.654 2.376-1.697c0.324 0.163 0.662 0.303 1.011 0.419l0.48 2.88h3.754l0.48-2.88c0.349-0.115 0.687-0.256 1.011-0.419l2.376 1.697 2.654-2.654-1.694-2.372c0.165-0.326 0.306-0.665 0.423-1.016l2.873-0.479zM10 12.5c-1.381 0-2.5-1.119-2.5-2.5s1.119-2.5 2.5-2.5c1.381 0 2.5 1.119 2.5 2.5s-1.119 2.5-2.5 2.5z"></path>
</svg>
<svg id="icon-pencil" viewBox="0 0 20 20">
<path d="M16.875 0c1.726 0 3.125 1.399 3.125 3.125 0 0.704-0.233 1.353-0.625 1.875l-1.25 1.25-4.375-4.375 1.25-1.25c0.522-0.392 1.171-0.625 1.875-0.625zM1.25 14.375l-1.25 5.625 5.625-1.25 11.563-11.563-4.375-4.375-11.563 11.563zM13.976 7.101l-8.75 8.75-1.077-1.077 8.75-8.75 1.077 1.077z"></path>
</svg>
<svg id="icon-wrench" viewBox="0 0 20 20">
<path d="M19.589 15.974l-8.995-7.71c0.419-0.787 0.657-1.685 0.657-2.639 0-3.107-2.518-5.625-5.625-5.625-0.568 0-1.117 0.085-1.634 0.241l3.25 3.25c0.486 0.486 0.486 1.282 0 1.768l-1.982 1.982c-0.486 0.486-1.282 0.486-1.768 0l-3.25-3.25c-0.157 0.517-0.241 1.065-0.241 1.634 0 3.107 2.518 5.625 5.625 5.625 0.954 0 1.852-0.238 2.639-0.657l7.71 8.995c0.447 0.522 1.211 0.551 1.697 0.065l1.982-1.982c0.486-0.486 0.457-1.25-0.065-1.697z"></path>
</svg>
<svg id="icon-list" viewBox="0 0 20 20">
<path d="M0 0h5v5h-5zM7.5 1.25h12.5v2.5h-12.5zM0 7.5h5v5h-5zM7.5 8.75h12.5v2.5h-12.5zM0 15h5v5h-5zM7.5 16.25h12.5v2.5h-12.5z"></path>
</svg>
<svg id="icon-trash" viewBox="0 0 20 20">
<path d="M3.75 20h12.5l1.25-13.75h-15zM12.5 2.5v-2.5h-5v2.5h-6.25v3.75l1.25-1.25h15l1.25 1.25v-3.75h-6.25zM11.25 2.5h-2.5v-1.25h2.5v1.25z"></path>
</svg>
<svg id="icon-lock" viewBox="0 0 20 20">
<path d="M16.25 8.75h-1.25v-3.75c0-2.761-2.239-5-5-5s-5 2.239-5 5v3.75h-1.25c-0.688 0-1.25 0.563-1.25 1.25v8.75c0 0.688 0.563 1.25 1.25 1.25h12.5c0.688 0 1.25-0.563 1.25-1.25v-8.75c0-0.688-0.563-1.25-1.25-1.25zM10 16.25c-0.69 0-1.25-0.56-1.25-1.25s0.56-1.25 1.25-1.25 1.25 0.56 1.25 1.25-0.56 1.25-1.25 1.25zM12.5 8.75h-5v-3.75c0-1.379 1.121-2.5 2.5-2.5s2.5 1.121 2.5 2.5v3.75z"></path>
</svg>
<svg id="icon-close1" viewBox="0 0 20 20">
<path d="M10 0c-5.523 0-10 4.477-10 10s4.477 10 10 10 10-4.477 10-10-4.477-10-10-10zM15 6.768l-3.232 3.232 3.232 3.232v1.768h-1.768l-3.232-3.232-3.232 3.232h-1.768v-1.768l3.232-3.232-3.232-3.232v-1.768h1.768l3.232 3.232 3.232-3.232h1.768v1.768z"></path>
</svg>
<svg id="icon-reload1" viewBox="0 0 20 20">
<path d="M17.071 2.929c-1.81-1.81-4.309-2.929-7.071-2.929-4.287 0-7.943 2.698-9.365 6.488l2.341 0.878c1.066-2.843 3.809-4.866 7.024-4.866 2.071 0 3.946 0.84 5.303 2.197l-2.803 2.803h7.5v-7.5l-2.929 2.929zM10 17.5c-2.071 0-3.946-0.84-5.303-2.197l2.803-2.803h-7.5v7.5l2.93-2.93c1.809 1.81 4.309 2.93 7.070 2.93 4.287 0 7.943-2.698 9.365-6.488l-2.341-0.878c-1.066 2.843-3.809 4.866-7.024 4.866z"></path>
</svg>
<symbol id="icon-play" viewBox="0 0 271.953 271.953">
<path d="M135.977,271.953c75.097,0,135.977-60.879,135.977-135.977S211.074,0,135.977,0S0,60.879,0,135.977
S60.879,271.953,135.977,271.953z M250.197,135.977c0,62.979-51.241,114.22-114.22,114.22s-114.22-51.241-114.22-114.22
s51.241-114.22,114.22-114.22S250.197,72.998,250.197,135.977z"/>
<path d="M112.295,205.031c2.692,1.115,5.434,1.659,8.235,1.659c5.662,0,11.183-2.208,15.344-6.375
l48.93-48.952c8.496-8.496,8.485-22.273-0.011-30.769l-48.957-48.952c-4.161-4.161-9.73-6.375-15.393-6.375
c-2.801,0-5.461,0.544-8.153,1.659c-8.126,3.367-13.255,11.297-13.255,20.097v97.903
C99.034,193.729,104.164,201.664,112.295,205.031z M120.791,88.613v-1.588l48.952,48.952l-48.952,48.952V88.613z"/>
</symbol>
</defs>
</svg>
